<svg width="22" height="22" viewBox="0 0 22 22" fill="none" xmlns="http://www.w3.org/2000/svg">
<path d="M8.98999 21.78C8.38999 21.78 7.81999 21.48 7.42999 20.95L6.23001 19.35C6.23001 19.36 6.18 19.33 6.16 19.33H5.79001C2.37001 19.33 0.25 18.4 0.25 13.79V9.79001C0.25 5.58001 2.82001 4.48001 4.98001 4.29001C5.22001 4.26001 5.50001 4.25 5.79001 4.25H12.19C15.81 4.25 17.73 6.17001 17.73 9.79001V13.79C17.73 14.08 17.72 14.36 17.68 14.63C17.5 16.76 16.4 19.33 12.19 19.33H11.79L10.55 20.95C10.16 21.48 9.58999 21.78 8.98999 21.78ZM5.79001 5.75C5.56001 5.75 5.34 5.76 5.13 5.78C2.81 5.98 1.75 7.25001 1.75 9.79001V13.79C1.75 17.22 2.81001 17.83 5.79001 17.83H6.19C6.64 17.83 7.14999 18.08 7.42999 18.44L8.63 20.05C8.85001 20.35 9.13001 20.35 9.35001 20.05L10.55 18.45C10.84 18.06 11.3 17.83 11.79 17.83H12.19C14.73 17.83 16 16.76 16.19 14.48C16.22 14.24 16.23 14.02 16.23 13.79V9.79001C16.23 7.00001 14.98 5.75 12.19 5.75H5.79001Z" fill="#EC99AD"/>
<path d="M8.99023 13.19C8.43023 13.19 7.99023 12.74 7.99023 12.19C7.99023 11.64 8.44023 11.19 8.99023 11.19C9.54023 11.19 9.99023 11.64 9.99023 12.19C9.99023 12.74 9.55023 13.19 8.99023 13.19Z" fill="#EC99AD"/>
<path d="M12.1899 13.19C11.6299 13.19 11.1899 12.74 11.1899 12.19C11.1899 11.64 11.6399 11.19 12.1899 11.19C12.7399 11.19 13.1899 11.64 13.1899 12.19C13.1899 12.74 12.7399 13.19 12.1899 13.19Z" fill="#EC99AD"/>
<path d="M5.7998 13.19C5.2398 13.19 4.7998 12.74 4.7998 12.19C4.7998 11.64 5.2498 11.19 5.7998 11.19C6.3498 11.19 6.7998 11.64 6.7998 12.19C6.7998 12.74 6.3498 13.19 5.7998 13.19Z" fill="#EC99AD"/>
<path d="M16.9401 15.29C16.7401 15.29 16.5401 15.21 16.4001 15.06C16.2401 14.9 16.1701 14.67 16.2001 14.45C16.2301 14.24 16.2401 14.02 16.2401 13.79V9.79001C16.2401 7.00001 14.9901 5.75 12.2001 5.75H5.80012C5.57012 5.75 5.35015 5.76 5.14015 5.78C4.92015 5.81 4.69013 5.72999 4.53013 5.57999C4.37013 5.41999 4.28012 5.20001 4.30012 4.98001C4.48012 2.82001 5.59012 0.25 9.80012 0.25H16.2001C19.8201 0.25 21.7401 2.17001 21.7401 5.79001V9.79001C21.7401 14 19.1701 15.1 17.0101 15.29C16.9801 15.29 16.9601 15.29 16.9401 15.29ZM5.92015 4.25H12.19C15.81 4.25 17.73 6.17001 17.73 9.79001L17.7301 13.66C19.4301 13.24 20.2301 11.99 20.2301 9.79001V5.79001C20.2301 3.00001 18.9801 1.75 16.1901 1.75H9.79014C7.59014 1.75 6.35015 2.55 5.92015 4.25Z" fill="#EC99AD"/>
</svg>
