<svg width="22" height="22" xmlns="http://www.w3.org/2000/svg">

 <g>
  <title>background</title>
  <rect fill="none" id="canvas_background" height="24" width="24" y="-1" x="-1"/>
 </g>
 <g>
  <title>Layer 1</title>
  <path id="svg_1" fill="#cf0032" d="m9.03254,21.78c-0.6,0 -1.17,-0.3 -1.56,-0.83l-1.19998,-1.6c0,0.01 -0.05001,-0.02 -0.07001,-0.02l-0.36999,0c-3.42,0 -5.54001,-0.93 -5.54001,-5.54l0,-3.99999c0,-4.21 2.57001,-5.31 4.73001,-5.5c0.24,-0.03 0.52,-0.04001 0.81,-0.04001l6.39999,0c3.62,0 5.54,1.92001 5.54,5.54001l0,3.99999c0,0.29 -0.01,0.57 -0.05,0.84c-0.18,2.13 -1.28,4.7 -5.49,4.7l-0.4,0l-1.24,1.62c-0.39,0.53 -0.96001,0.83 -1.56001,0.83zm-3.19998,-16.03c-0.23,0 -0.45001,0.01 -0.66001,0.03c-2.32,0.2 -3.38,1.47001 -3.38,4.01001l0,3.99999c0,3.43 1.06001,4.04 4.04001,4.04l0.39999,0c0.45,0 0.95999,0.25 1.23999,0.61l1.20001,1.61c0.22001,0.3 0.50001,0.3 0.72001,0l1.19999,-1.6c0.29,-0.39 0.75,-0.62 1.24,-0.62l0.4,0c2.54,0 3.81,-1.07 4,-3.35c0.03,-0.24 0.04,-0.46 0.04,-0.69l0,-3.99999c0,-2.79 -1.25,-4.04001 -4.04,-4.04001l-6.39999,0z"/>
  <path id="svg_2" fill="#cf0032" d="m8.99023,13.19c-0.56,0 -1,-0.45 -1,-1c0,-0.55 0.45,-1 1,-1c0.55,0 1,0.45 1,1c0,0.55 -0.44,1 -1,1z"/>
  <path id="svg_3" fill="#cf0032" d="m12.1899,13.19c-0.56,0 -1,-0.45 -1,-1c0,-0.55 0.45,-1 1,-1c0.55,0 1,0.45 1,1c0,0.55 -0.45,1 -1,1z"/>
  <path id="svg_4" fill="#cf0032" d="m5.7998,13.19c-0.56,0 -1,-0.45 -1,-1c0,-0.55 0.45,-1 1,-1c0.55,0 1,0.45 1,1c0,0.55 -0.45,1 -1,1z"/>
  <path id="svg_5" fill="#cf0032" d="m17.11031,15.33255c-0.2,0 -0.4,-0.08 -0.54,-0.23c-0.16,-0.16 -0.23,-0.39 -0.2,-0.61c0.03,-0.21 0.04,-0.43 0.04,-0.66l0,-3.99999c0,-2.79 -1.25,-4.04001 -4.04,-4.04001l-6.39998,0c-0.23,0 -0.44997,0.01 -0.65997,0.03c-0.22,0.03 -0.45002,-0.05001 -0.61002,-0.20001c-0.16,-0.16 -0.25001,-0.37998 -0.23001,-0.59998c0.18,-2.16 1.29,-4.73001 5.5,-4.73001l6.39998,0c3.62,0 5.54,1.92001 5.54,5.54001l0,4c0,4.20999 -2.57,5.30999 -4.73,5.49999c-0.03,0 -0.05,0 -0.07,0zm-11.01995,-11.04l6.26985,0c3.62,0 5.54,1.92001 5.54,5.54001l0.0001,3.86999c1.7,-0.42 2.5,-1.67 2.5,-3.86999l0,-4c0,-2.79 -1.25,-4.04001 -4.04,-4.04001l-6.39996,0c-2.2,0 -3.43999,0.8 -3.86999,2.5z"/>
  <path d="m2.33874,6.00811c0.04057,0 0.08114,0 0.1217,0l0.04057,0" id="svg_11" fill-opacity="null" stroke-opacity="null" stroke-width="null" stroke="null" fill="none"/>
  <path d="m3.06896,5.80527c0.04057,0 0.09302,0.02869 0.1217,0c0.02869,-0.02869 0.08114,-0.04057 0.20284,-0.04057c0.16227,0 0.32153,-0.02018 0.52738,-0.04057c0.20185,-0.01999 0.44324,-0.02018 0.64909,-0.04057c0.12111,-0.01199 0.20284,0 0.32454,0c0.08114,0 0.20284,0 0.32454,0c0.08114,0 0.24341,0 0.40568,0l0.24341,0.08114l0.20284,0" id="svg_12" stroke-opacity="null" stroke-width="null" stroke="null" fill="#ec99ad"/>
  <path d="m1.08113,15.0142c0,-0.04057 0,-0.08114 0,-0.1217c0,-0.04057 -0.02013,-0.1991 -0.04057,-0.36511c-0.01983,-0.16106 -0.04898,-0.32267 -0.08114,-0.48682c-0.05514,-0.28151 -0.0607,-0.44251 -0.08114,-0.60852c-0.01487,-0.12079 0,-0.20284 0,-0.28398c0,-0.08114 0,-0.16227 0,-0.28398c0,-0.1217 0,-0.16227 0,-0.20284c0,-0.04057 0,-0.1217 0,-0.16227c0,-0.1217 0,-0.20284 0.04057,-0.28398l0,-0.04057" id="svg_13" stroke-opacity="null" stroke-width="null" stroke="null" fill="none"/>
  <path d="m0.71602,13.10751c0.04057,0 0.03407,-0.04109 0.04057,-0.08114c0.02055,-0.12663 0.04057,-0.20284 0.04057,-0.36511c0,-0.16227 -0.01983,-0.32576 0,-0.48682c0.02044,-0.16601 0.04057,-0.28398 0.04057,-0.32454c0,-0.04057 0,-0.08114 0,-0.1217c0,-0.04057 0,-0.08114 0,-0.1217c0,-0.04057 0.04057,-0.04057 0.04057,-0.08114c0,-0.04057 0,-0.08114 0,-0.1217c0,-0.04057 0.01973,-0.07399 0.04057,-0.16227c0.01864,-0.07897 0,-0.1217 0,-0.16227l0,-0.04057l0.04057,0" id="svg_14" stroke-opacity="null" stroke-width="null" stroke="null" fill="none"/>
  <polyline stroke-linecap="round" id="svg_15" points="3.5963429510593414,10.389452248811722 3.636910930275917,10.389452248811722 " stroke-opacity="null" stroke-width="null" stroke="null" fill="none"/>
  <path d="m1.28397,15.66329c0,-0.04057 -0.00952,-0.04674 -0.04057,-0.1217c-0.04391,-0.10601 -0.14172,-0.19791 -0.16227,-0.32454c-0.01949,-0.12013 -0.04057,-0.28398 -0.04057,-0.44625c0,-0.16227 0,-0.32454 0,-0.44625c0,-0.08114 0,-0.20284 0,-0.24341c0,-0.1217 0,-0.24341 0,-0.32454c0,-0.04057 0.04057,-0.16227 0.04057,-0.24341c0,-0.08114 0,-0.16227 0,-0.24341c0,-0.1217 0.01973,-0.23626 0.04057,-0.32454c0.00932,-0.03948 -0.01864,-0.08331 0,-0.16227c0.02084,-0.08829 0.04057,-0.20284 0.04057,-0.24341c0,-0.08114 0.04057,-0.1217 0.04057,-0.16227c0,-0.04057 0,-0.1217 0,-0.16227l0.04057,-0.08114l0,-0.04057" id="svg_17" stroke-opacity="null" stroke-width="null" stroke="null" fill="none"/>
  <line stroke-linecap="null" stroke-linejoin="null" id="svg_18" y2="9.90264" x2="1.64908" y1="11.7282" x1="0.71602" stroke-opacity="null" stroke-width="null" stroke="null" fill="none"/>
  <line stroke-linecap="null" stroke-linejoin="null" id="svg_21" y2="12.61484" x2="1.14925" y1="14.01905" x1="1.48967" fill-opacity="0" stroke-opacity="null" stroke-width="null" stroke="null" fill="none"/>
 </g>
</svg>