<svg width="32" height="31" viewBox="0 0 32 31" fill="none" xmlns="http://www.w3.org/2000/svg">
<path d="M28.0006 14.6668H4.00065C2.72065 14.6668 1.66732 13.6135 1.66732 12.3335V7.90684C1.66732 7.00017 2.29395 6.08018 3.13395 5.74684L15.134 0.946875C15.6406 0.746875 16.3607 0.746875 16.8673 0.946875L28.8673 5.74684C29.7073 6.08018 30.334 7.0135 30.334 7.90684V12.3335C30.334 13.6135 29.2806 14.6668 28.0006 14.6668ZM16.0007 2.78688C15.9473 2.78688 15.894 2.78681 15.8673 2.80015L3.88061 7.6002C3.80062 7.6402 3.66732 7.8135 3.66732 7.90684V12.3335C3.66732 12.5202 3.81398 12.6668 4.00065 12.6668H28.0006C28.1873 12.6668 28.334 12.5202 28.334 12.3335V7.90684C28.334 7.8135 28.214 7.6402 28.1207 7.6002L16.1207 2.80015C16.094 2.78681 16.054 2.78688 16.0007 2.78688Z" fill="#272727"/>
<path d="M29.334 30.3335H2.66732C2.12065 30.3335 1.66732 29.8802 1.66732 29.3335V26.3335C1.66732 25.0535 2.72065 24.0002 4.00065 24.0002H28.0006C29.2806 24.0002 30.334 25.0535 30.334 26.3335V29.3335C30.334 29.8802 29.8806 30.3335 29.334 30.3335ZM3.66732 28.3335H28.334V26.3335C28.334 26.1468 28.1873 26.0002 28.0006 26.0002H4.00065C3.81398 26.0002 3.66732 26.1468 3.66732 26.3335V28.3335Z" fill="#272727"/>
<path d="M5.33398 26.0002C4.78732 26.0002 4.33398 25.5468 4.33398 25.0002V13.6668C4.33398 13.1202 4.78732 12.6668 5.33398 12.6668C5.88065 12.6668 6.33398 13.1202 6.33398 13.6668V25.0002C6.33398 25.5468 5.88065 26.0002 5.33398 26.0002Z" fill="#272727"/>
<path d="M10.6673 26.0002C10.1207 26.0002 9.66732 25.5468 9.66732 25.0002V13.6668C9.66732 13.1202 10.1207 12.6668 10.6673 12.6668C11.214 12.6668 11.6673 13.1202 11.6673 13.6668V25.0002C11.6673 25.5468 11.214 26.0002 10.6673 26.0002Z" fill="#272727"/>
<path d="M16.0007 26.0002C15.454 26.0002 15.0007 25.5468 15.0007 25.0002V13.6668C15.0007 13.1202 15.454 12.6668 16.0007 12.6668C16.5473 12.6668 17.0007 13.1202 17.0007 13.6668V25.0002C17.0007 25.5468 16.5473 26.0002 16.0007 26.0002Z" fill="#272727"/>
<path d="M21.334 26.0002C20.7873 26.0002 20.334 25.5468 20.334 25.0002V13.6668C20.334 13.1202 20.7873 12.6668 21.334 12.6668C21.8807 12.6668 22.334 13.1202 22.334 13.6668V25.0002C22.334 25.5468 21.8807 26.0002 21.334 26.0002Z" fill="#272727"/>
<path d="M26.6673 26.0002C26.1206 26.0002 25.6673 25.5468 25.6673 25.0002V13.6668C25.6673 13.1202 26.1206 12.6668 26.6673 12.6668C27.214 12.6668 27.6673 13.1202 27.6673 13.6668V25.0002C27.6673 25.5468 27.214 26.0002 26.6673 26.0002Z" fill="#272727"/>
<path d="M30.6673 30.3335H1.33398C0.787318 30.3335 0.333984 29.8802 0.333984 29.3335C0.333984 28.7868 0.787318 28.3335 1.33398 28.3335H30.6673C31.214 28.3335 31.6673 28.7868 31.6673 29.3335C31.6673 29.8802 31.214 30.3335 30.6673 30.3335Z" fill="#272727"/>
<path d="M16.0007 11.3335C14.3473 11.3335 13.0007 9.98683 13.0007 8.3335C13.0007 6.68016 14.3473 5.3335 16.0007 5.3335C17.654 5.3335 19.0007 6.68016 19.0007 8.3335C19.0007 9.98683 17.654 11.3335 16.0007 11.3335ZM16.0007 7.3335C15.454 7.3335 15.0007 7.78683 15.0007 8.3335C15.0007 8.88016 15.454 9.3335 16.0007 9.3335C16.5473 9.3335 17.0007 8.88016 17.0007 8.3335C17.0007 7.78683 16.5473 7.3335 16.0007 7.3335Z" fill="#272727"/>
</svg>
